<?xml version="1.0" standalone="no"?>
<!-- Generator: Gravit.io -->
<svg xmlns="http://www.w3.org/2000/svg" xmlns:xlink="http://www.w3.org/1999/xlink" style="isolation:isolate" viewBox="0 0 24 24" width="24" height="24">
  <defs>
    <clipPath id="_clipPath_JeZ7edTOlMJQFxsNZ2X0uBSdODPgG1z6">
      <rect width="24" height="24"/>
    </clipPath>
  </defs>
  <g clip-path="url(#_clipPath_JeZ7edTOlMJQFxsNZ2X0uBSdODPgG1z6)">
    <clipPath id="_clipPath_mMcb8Rgm6nRcIL2sANbjmSndZObtwhzW">
      <path d=" M 24.471 -29.281 L 48.471 -29.281 L 48.471 -5.281 L 24.471 -5.281 L 24.471 -29.281 Z " fill="rgb(0,0,0)"/>
    </clipPath>
    <g clip-path="url(#_clipPath_mMcb8Rgm6nRcIL2sANbjmSndZObtwhzW)">
      <defs>
        <mask id="_mask_GotSYWBoLV2k0jdmEHuhM9FMb2s0ewiO">
          <path d="M 32.409 -27.344 L 44.409 -27.344 L 44.409 -20.344 L 32.409 -20.344 L 32.409 -27.344 Z" style="stroke:black;fill:rgb(0,0,0);stroke-miterlimit:10;"/>
        </mask>
        <mask id="_mask_wOa0eMRVLOuzSOhmXUhXIlbrzTjSVT64">
          <path d="M 32.409 -27.344 L 44.409 -27.344 L 44.409 -20.344 L 32.409 -20.344 L 32.409 -27.344 Z" style="stroke:black;fill:rgb(0,0,0);stroke-miterlimit:10;"/>
        </mask>
      </defs>
      <g mask="url(#_mask_wOa0eMRVLOuzSOhmXUhXIlbrzTjSVT64)">
        <g mask="url(#_mask_GotSYWBoLV2k0jdmEHuhM9FMb2s0ewiO)"/>
      </g>
      <g mask="url(#_mask_GotSYWBoLV2k0jdmEHuhM9FMb2s0ewiO)">
        <image width="1400" height="1147" transform="matrix(0.275,0,0,0.275,-106.072,-183.344)" preserveAspectRatio="none" style=""/>
      </g>
    </g>
    <path d=" M 5.031 38.25 L 23.031 38.25 L 23.031 36.25 L 5.031 36.25 L 5.031 38.25 Z  M 5.031 26.25 L 5.031 28.25 L 23.031 28.25 L 23.031 26.25 L 5.031 26.25 Z " fill="none"/>
    <rect x="9" y="11.25" width="15" height="1.5" transform="matrix(1,0,0,1,0,0)" fill="rgb(0,0,0)"/>
    <rect x="0" y="17.221" width="15" height="1.5" transform="matrix(1,0,0,1,0,0)" fill="rgb(0,0,0)"/>
    <rect x="0" y="5.221" width="15" height="1.5" transform="matrix(1,0,0,1,0,0)" fill="rgb(0,0,0)"/>
  </g>
</svg>
