<svg xmlns="http://www.w3.org/2000/svg" style="isolation:isolate" width="24" height="24"><defs><clipPath id="a"><path d="M0 0h24v24H0z"/></clipPath></defs><g clip-path="url(#a)"><clipPath id="b"><path d="M24.471-29.281h24v24h-24v-24z"/></clipPath><g clip-path="url(#b)"><defs><mask id="d"><path d="M32.409-27.344h12v7h-12v-7z" stroke="#000" stroke-miterlimit="10"/></mask><mask id="c"><path d="M32.409-27.344h12v7h-12v-7z" stroke="#000" stroke-miterlimit="10"/></mask></defs><g mask="url(#d)"><image width="1400" height="1147" transform="matrix(.275 0 0 .275 -106.072 -183.344)" preserveAspectRatio="none"/></g></g><path d="M5.031 38.25h18v-2h-18v2zm0-12v2h18v-2h-18z" fill="none"/><path d="M9 11.25h15v1.5H9zM0 17.221h15v1.5H0zM0 5.221h15v1.5H0z"/></g></svg>